<svg xmlns="http://www.w3.org/2000/svg"><path d="M72.2 344c.7-3 1-5.8 1.2-7 0-1.8 0-1.8-1-2.4-2.5-1.2-5.4-1-7.2.7l-1.3 1V335c.6-2.6 0-3.6-5.7-8-5-4-9.3-8-25.5-24.5-20.6-21-23.5-23.6-29.4-27-2.6-1.7-3-2-3.4-4 0-.5 0-1.2.2-1.6.3-.8.6-.8 2-.8 2.6 0 3.4-1 9.2-11 14-23.7 30.4-45.4 53.2-70.3 6.3-7 30-31 36.5-36.6 28.8-26.2 67-53.3 92.7-65.7 14.8-7 51-22.5 51.7-22 .3.4-6.8 3.7-25.7 12-16 7.2-33.2 15.4-40.6 19.6-8 4.4-34.2 22-41.2 27.7l-3.4 3.5c-2 2.3-8.8 8.8-25.5 24.3C85 172.8 70 187.3 58 200c-6 6.3-12.2 12.7-17.7 18-5 4.7-17.8 23.6-27.3 40-5.3 9.4-7 12.7-7.2 14.3l-.2 1.3 12 12c6.8 6.5 17.4 17 23.6 23.3L56 323c5.4 4.7 9.4 7.3 10 6.7.3-.4-1-1.8-6.5-7.7l-8.2-9c-8.8-9.8-27.4-32.3-32-39-2-2.6-2.8-5.5-1.6-5.5l1.5 1c.6.7 1.3 1 1.5 1 .7-.2.5-1.7-.5-3.6-2-3.4-1.4-5.4 2-7.5 2.3-1.5 3.6-3 6-6.8 7.4-12.3 17-25 32.3-43 25-29.2 46-49.7 74.5-72.5 40.8-32.7 83-57.7 136-80.7 10.8-4.6 21-9.2 21.6-9.6.5-.4.4-.5-1.5-1.6-1-.7-4.6-2.6-8-4.3C260 29 243.5 19 238.8 14.6c-2.4-2.4-3.3-4-3.2-6 0-2 .5-3.4 1.7-5 .4-.6.7-1.2.6-1.3 0-.4-3.6-.3-6.4 0-3.2.7-5.6 1.6-7.2 2.8-1 1-1.2 1-1.2 2.3 0 1.6 1.2 3.6 4.7 7.8 3.3 4 15.3 16 25 25 7.7 7.4 14.8 14.5 15.3 15.4.3.6.3.6-.2.3-1.8-1-11.2-9.6-24-22-15.7-15.2-22.5-23.2-22.5-26.4 0-2.3 4-4.7 10.4-6 5-1 9.6-1.3 20-1.3 15.3 0 24.6.6 46.6 2.6 14.4 1.3 22.4 2 42 3.4 28.7 2 34.2 2.8 37.3 4.4 1.6 1 3 3 2.6 4-.3 1.3-3.3 5.4-8.8 12.5-3 3.6-5.5 7-5.7 7.4-.2.6-.2.8.3 1.3.7 1 3.7 2.4 5 2.7 1.6.3 2.3 0 4.6-2 1-1 2-1.7 2-1.7l-1.4 2.5c-1.8 2.8-2 3.4-.4 7 1 2.3 1 2.8 1 5.4.2 2.7 0 2.8-1.4 6-6.5 13.4-31.2 46.5-49 65.7-4.5 5-14 14.3-15.7 15.5-.7.5-2 1.3-3 1.7-1.5.6-2 .7-4 .5-1.5 0-3-.4-4.5-1-2.8-1.2-4-1.2-5.7-.2-3 1.6-4 2-4.5 1.6-1.3-.8-1.6-2.2-1.8-9.7-.4-11.4-4.4-43-5.7-45.6-.4-.7-.7-.7-1.8.3-1.6 1.3-1.8 3.5-1 10 1 5.5 2.2 10.4 4.2 16 1 2.8 2 5.5 2 6 0 .8 0 .8-.4.3-2.5-2-6-13-7.3-22.5-.8-6-1-7.3-1.8-7.3s-3.2 1.3-5.4 3c-3.6 2.6-7.6 6-16 14-10.7 10.3-17 16-31.6 29.4-34 30.4-47.6 44.5-74 76.3C116.7 247 91 287.3 81.8 313c-3 8.5-5.7 17.6-7 24.6-.5 2.6-1 5.2-1.4 5.8-.6 1.2-1.4 1.5-1.2.4zm1.8-12.7c.3-.3 1-2.3 1.5-4.3l3.2-9.2c2.6-7.7 3-9.2 3-10.3v-.8l-.8 1c-3 3.3-5.8 8.6-6.5 11.8-.6 2.6-1.4 4-3.4 6.6-1 1-1.5 2.4-1.5 2.6 0 .7 3 3.5 3.6 3.5.4 0 1-.2 1-.6zm-7.4-7.3c-.8-1.5-2-3.6-3-4.8-1.4-2-1.7-2-2.6-2-.6 0-1.4 0-2 .2-.7.2-.7 0-.4-.6.5-1.3.3-3.2-.3-4.6-1-1.7-3-4.8-7.7-11-13-17.5-22-27-25.4-27.3-1.5 0-1.6.5-.2 3 3.5 7 16 22.4 20.6 25.6 2 1.3 2.3 1.8 1.8 2.6-.3.4-.2.8.4 1.7C52 313 67 328.2 67.6 327c0-.3-.5-1.7-1.2-3zm9.3-12.5c4.3-6.3 8.4-14.5 13.5-27.4 4-9.6 6.2-14.4 11.6-25 2.7-5 4.8-9.6 4.8-10-.7-1.6-9 11.7-17.2 27-7 14-12.3 26-13.5 31.5-.4 2.3-.4 5.3 0 5.3 0 0 .7-.6 1-1.3zm-9.8-6c.3-.4 1.2-2.8 2-5.5l4.7-12.8c3.5-9.4 4-11.6 1.5-6.3-1.7 3.6-8.6 20-9.3 22.5-.6 2 0 3 1 2zM66 297c10-25 25-52 44-78.4 30.4-42.6 62.7-75 108.2-109 11.4-8.3 29-20.5 40-27.5 7.3-4.5 11.3-6.3 9.3-4.2-.7.8-.8 1.4-.2 1.4.5 0 6.5-4 8-5 .4-.6 1.6-1.2 2.6-1.4 3.7-1 14-7 14.5-8.5 0-.3.4-.4 1-.2.5 0 1.7-.2 4.7-1.6 3.4-1.6 4.2-2 6-2 1.8-.2 2 0 2.7.6.7.7.7 1 .7 3.8 0 3-.6 11.2-2 27l-1 10.5v.8l.8-1 5.6-7.6C317.7 85 324 76 333.6 63c14-19 21-29.3 21-30.2 0-.6-8.8-3.3-19.5-6-12-3-32-6.6-57.3-10.6l-9.7-1.7c.4-.2 14.4 1.5 23.2 2.8 22 3.2 36.4 6 52.5 10.5 11.5 3 12 3.3 13 2.6 1-.5 4-4 9.3-10.4l3-3.5-1.3-.2c-12.5-2-119.4-7.7-119.4-6.2 0 2 9 7.6 35.5 22 18.8 10 20.6 11.3 20.6 13.5 0 1-2 4.6-3 5.8-1 1.2-10 5.5-21.4 10.4-45.3 19.5-81 39.2-116 64.3-36.7 26.2-72 59-103.2 95.8-16 18.8-29 37.7-29 42.2 0 1.7.7 2.6 6 8.2 5 5.4 7.8 8.7 17.8 21.3 4.2 5.2 7.6 9.4 7.8 9.4l2.5-6zM266 14h1s0 .3-.5.3c-.3 0-.5 0-.3-.2zM92.7 283c.8-1 6.5-9.2 12.7-18.5 18.8-28 23.8-35 38.4-53 24.8-30.5 42-49.7 67.3-75 16.4-16.4 16.7-16.6 16.2-16.6-1 0-26.6 22-39 33-7.4 7-31 30.5-36.7 37-17.5 20-30.4 37.3-42.3 57.6-7.6 13-18.7 35-18.7 37 0 1 .3.7 2-1.4zm9.3-33c1-1 4-5.4 7-9.6 9.5-13 14-19 20.7-27.4 24.3-30.4 53.4-60.5 82.8-86 10-8.4 12.8-11 12.3-11.6-.4-.4-8.3 5.7-22.7 17.7-23 19.4-33.7 29-43 39-17 18.4-28.8 33-43 54-7.3 11-16.2 25-16.2 25.6 0 .6.8 0 2.2-1.7zm-33.6-63l11.4-11 20.2-19c12.5-11.4 21.8-20.4 21.6-20.7C120.2 135 72 180 66.2 188c-.6 1-1 1.5-.8 1.5.2 0 1.5-1 3-2.5zM201 150.4c13.2-11.2 49.3-44.2 52.3-47.8 5-6.2-8.6 4.4-24.4 18.8-9.5 8.5-30.8 30-31.3 31.4 0 .4 0 .3 3-2.4zm90-13c2-1.2 2-2.3-.6-7-2-3.5-2-3.5-2.2 2.4-.2 3.6-.2 3.6.6 4.4 1 1 1 1 2.2.3zm17.6-1.2c2-1 6.2-5 13.5-13 14.7-16 24.6-28 34.6-41.2 8.4-11.3 12.8-18.3 16.8-26.3 2.2-4.4 2.4-5 2.4-6.7 0-1.3-.2-2-1-3.6-.6-1-1.4-2-1.8-2.3-.6-.6-.7-.5-2.7 1.5-4.3 4.4-15.5 18-32.5 40-19.2 24.3-29 36.3-36.3 44.4-4 4.5-4.7 5.3-4.2 6.2.7 1.3 2.8 1.8 7 1.7 2.2 0 3-.3 4.2-1zM292.2 123c2-3.7 3.3-12 5-29 1-13.3 1.4-21.7.6-21.5 0 0-.3.3-.3.7 0 1-1 2-3 3.2l-1.5 1s0 1-.3 2.4l-2.2 29c-.6 8-.6 15.4-.2 16.3.4.5.4.5.8 0 .4-.4 1-1.3 1.3-2zm12.2-.2c3-3 10-11.7 27-33C367.4 45 370 41.6 370 41c0-.6-3.4-3-5-3.7l-1.4-.5-1.4 1.5c-.8 1-4 5.2-7 9.6-7 10-12.3 17-21.6 29.7l-11 15.2c-8.2 11-20.4 30-20.4 31.4 0 .5.7 0 2.2-1.6zm-77.4-4.3c2.5-2 8.3-6.3 13-9.7 10-7.8 12.2-9.6 10.8-9.6-.5 0-5 3.2-11.8 8.7-6.7 5.4-17 13.8-17 14 0 .5 1 0 5-3.3zm62.4-28c1-8.2 1-10.4.5-11-.3-.5-.8-.4-3 .7l-3.3 2-1 1 1.4 9c1.4 9.3 3.7 23 4 24.4l.4-9c.2-7.3.4-11.7 1-17.3zm-256 110.2c.5-1 5.7-6.3 10.4-10.8 14.7-14 38.6-34.7 53.6-46.5 14.3-11.3 44.2-33 65-47 12.7-8.8 17-11.6 17-11 0 .5-2 2-13.5 10-30.6 21-51 36-72.3 53-18.3 14.6-30.6 25.4-49.2 43-5.8 5.7-10.7 10-11 10-.2 0-.2-.3 0-.6z"/></svg>